<svg xmlns="http://www.w3.org/2000/svg" width="244" height="40" viewBox="0 0 244 40" role="img" aria-label="RYH’s Workbench"><title>RYH’s Workbench</title><style>g{fill:#285e28}@media(prefers-color-scheme:dark){g{fill:#b6e89b}}</style><g transform="translate(2 28.0) scale(0.03125 -0.03125)"><path transform="translate(0 0)" d="M0 640H384V576H448V384H384V320H448V0H320V320H128V0H0ZM128 576V384H320V576Z"/><path transform="translate(512 0)" d="M64 640H192V384H320V640H448V384H384V320H320V0H192V320H128V384H64Z"/><path transform="translate(1024 0)" d="M0 640H128V384H320V640H448V0H320V320H128V0H0Z"/><path transform="translate(1536 0)" d="M128 704H256V512H192V448H128V512H192V576H128Z"/><path transform="translate(2048 0)" d="M0 384H64V448H384V384H448V320H320V384H128V256H384V192H448V64H384V0H64V64H0V128H128V64H320V192H64V256H0Z"/><path transform="translate(2560 0)" d=""/><path transform="translate(3072 0)" d="M0 640H128V64H192V640H256V64H320V640H448V64H384V0H64V64H0Z"/><path transform="translate(3584 0)" d="M0 384H64V448H384V384H448V64H384V0H64V64H0ZM128 384V64H320V384Z"/><path transform="translate(4096 0)" d="M0 448H128V384H192V448H384V384H448V256H320V384H192V320H128V0H0Z"/><path transform="translate(4608 0)" d="M0 640H128V256H256V320H320V448H448V320H384V256H320V192H384V128H448V0H320V128H256V192H128V0H0Z"/><path transform="translate(5120 0)" d="M0 640H128V448H384V384H448V64H384V0H0ZM128 384V64H320V384Z"/><path transform="translate(5632 0)" d="M0 384H64V448H384V384H448V256H128V64H320V128H448V64H384V0H64V64H0ZM128 384V320H320V384Z"/><path transform="translate(6144 0)" d="M0 448H128V384H192V448H384V384H448V0H320V384H192V320H128V0H0Z"/><path transform="translate(6656 0)" d="M0 384H64V448H384V384H448V320H320V384H128V64H320V128H448V64H384V0H64V64H0Z"/><path transform="translate(7168 0)" d="M0 640H128V384H192V448H384V384H448V0H320V384H192V320H128V0H0Z"/></g></svg>
