<svg xmlns="http://www.w3.org/2000/svg" width="76" height="24" viewBox="0 0 76 24" role="img"><title>활동 월드</title><style>g{fill:#24292f}@media(prefers-color-scheme:dark){g{fill:#c9d1d9}}</style><g transform="translate(2 16) scale(0.015625 -0.015625)"><path transform="translate(0 0)" d="M64 640H256V704H384V640H576V576H512V512H576V448H512V384H128V448H64V512H128V576H64ZM192 512V448H448V512ZM64 320H256V448H384V320H704V704H832V512H1024V448H832V192H704V256H64ZM128 192H832V0H256V-64H832V-128H192V-64H128V64H704V128H128Z"/><path transform="translate(1024 0)" d="M128 704H896V640H256V448H896V384H192V448H128ZM64 320H448V448H576V320H960V256H64ZM128 128H256V192H768V128H896V-64H768V-128H256V-64H128ZM256 64V0H320V-64H704V0H768V64H704V128H320V64Z"/><path transform="translate(2048 0)" d=""/><path transform="translate(2560 0)" d="M64 640H192V704H448V640H576V448H448V384H192V448H64ZM192 576V512H256V448H384V512H448V576H384V640H256V576ZM64 384H768V704H896V192H768V256H576V320H384V192H256V320H64ZM128 192H896V0H256V-64H896V-128H192V-64H128V64H768V128H128Z"/><path transform="translate(3584 0)" d="M128 640H896V576H256V256H896V192H192V256H128ZM64 0H960V-64H64Z"/></g></svg>
