<svg xmlns="http://www.w3.org/2000/svg" width="20" height="24" viewBox="0 0 20 24" role="img"><title>C#</title><style>g{fill:#24292f}@media(prefers-color-scheme:dark){g{fill:#c9d1d9}}</style><g transform="translate(2 16) scale(0.015625 -0.015625)"><path transform="translate(0 0)" d="M0 576H64V640H384V576H448V512H320V576H128V64H320V128H448V64H384V0H64V64H0Z"/><path transform="translate(512 0)" d="M0 448H64V576H192V448H256V576H384V448H448V384H384V192H448V128H384V0H256V128H192V0H64V128H0V192H64V384H0ZM192 384V192H256V384Z"/></g></svg>
