<svg xmlns="http://www.w3.org/2000/svg" viewBox="0 0 960 190" role="img" aria-labelledby="title desc" shape-rendering="crispEdges">
  <title id="title">지하 기록실</title><desc id="desc">스티브가 발광석 조명 아래 기록을 정리하고 닭은 모니터 위에서 활동 지도를 지켜봅니다.</desc>
  <style>.lamp{animation:lamp 2.4s steps(2,end) infinite}.screen{animation:screen 3s steps(2,end) infinite}.chicken{animation:bob 2s steps(2,end) infinite}@keyframes lamp{50%{filter:brightness(1.25)}}@keyframes screen{50%{opacity:.72}}@keyframes bob{50%{transform:translateY(-2px)}}@media(prefers-reduced-motion:reduce){.lamp,.screen,.chicken{animation:none}}</style>
  <rect width="960" height="190" rx="6" fill="#101820"/><path d="M0 0h960v118H0z" fill="#17222b"/><path d="M0 25h960M0 67h960M0 108h960" stroke="#26343e" stroke-width="5"/>
  <g class="lamp"><rect x="448" width="64" height="13" fill="#6c5230"/><rect x="458" y="10" width="44" height="28" fill="#e7ba4d"/><rect x="467" y="15" width="26" height="17" fill="#fff0a0"/></g>
  <path d="M0 125h960v65H0z" fill="#302116"/><path d="M0 125h960v9H0z" fill="#664326"/><path d="M84 134v56m198-56v56m198-56v56m198-56v56m198-56v56" stroke="#1f150f" stroke-width="7"/>
  <g transform="translate(81 46)"><rect width="172" height="82" fill="#523820" stroke="#8b6035" stroke-width="6"/><rect x="14" y="13" width="43" height="56" fill="#875136"/><rect x="65" y="13" width="43" height="56" fill="#49678c"/><rect x="116" y="13" width="43" height="56" fill="#6e4a81"/><path d="M14 27h43m8 17h43m8-4h43" stroke="#d1b67a" stroke-width="4"/></g>
  <g transform="translate(348 54)"><rect width="264" height="80" fill="#222b32" stroke="#7a858c" stroke-width="6"/><rect class="screen" x="14" y="13" width="236" height="54" fill="#09120e"/><g fill="#3ed36a"><rect x="25" y="45" width="12" height="12"/><rect x="45" y="35" width="12" height="22"/><rect x="65" y="23" width="12" height="34"/><rect x="85" y="40" width="12" height="17"/><rect x="105" y="29" width="12" height="28"/></g><path d="M145 51h88" stroke="#54d3c8" stroke-width="5" stroke-dasharray="11 6"/></g>
  <g class="chicken" transform="translate(470 18)"><rect x="8" y="0" width="31" height="30" fill="#f1ebd9"/><rect x="34" y="8" width="12" height="8" fill="#e5a52b"/><rect x="16" y="8" width="5" height="5" fill="#20252a"/><rect x="21" y="27" width="8" height="10" fill="#c73d33"/></g>
  <g transform="translate(695 42)"><rect x="18" width="42" height="40" fill="#8c5c44"/><rect x="12" y="39" width="54" height="48" fill="#20a4a6"/><rect x="16" y="12" width="12" height="6" fill="#eee"/><rect x="50" y="12" width="12" height="6" fill="#eee"/><path d="M12 25h54" stroke="#cad1d5" stroke-width="3"/><rect x="1" y="49" width="16" height="46" fill="#8c5c44"/><rect x="62" y="49" width="16" height="46" fill="#8c5c44"/><rect x="18" y="84" width="20" height="35" fill="#3f3289"/><rect x="45" y="84" width="20" height="35" fill="#3f3289"/><path d="M-13 58h48v34h-48z" fill="#c3c8cb" stroke="#62686c" stroke-width="4"/></g>
  <g transform="translate(279 135)"><path d="M0 0h95v42H0z" fill="#d6c69c" stroke="#755334" stroke-width="4"/><path d="M47 0v42M12 12h25m-25 10h20m27-10h24m-24 10h19" stroke="#8c7851" stroke-width="3"/></g>
  <path d="M0 174l120-24 115 28 118-17 115 24 112-20 128 24 122-31 130 23v9H0z" fill="#0a1015"/>
</svg>
